#!OML:ASF I:\Actors\actors\Patient Classification 2\Patient 1\Session 1\actor1.ASF
:FULLY-SPECIFIED
:DEGREES
299
root 0.0685324 18.0107 6.85088 -5.69982 -0.594828 -4.4425
lowerback 4.92906 -4.22241 10.5406
upperback -4.87752 -4.14548 8.3738
thorax -8.15799 -2.33459 3.59497
lowerneck -22.9963 1.45352 6.8563
upperneck 11.4484 1.95397 -12.3964
head 7.48342 0.0172746 -5.03895
rclavicle -3.33958e-014 6.67916e-014
rhumerus 25.3784 -62.3456 -44.9641
rradius 128.034
rwrist -18.8416
rhand -28.708 -21.4966
rfingers 7.12502
rthumb -2.06971 -51.4664
lclavicle -3.33958e-014 6.67916e-014
lhumerus -42.0632 -35.8692 78.9758
lradius 88.245
lwrist 33.399
lhand -8.59844 -20.4227
lfingers 7.12502
lthumb 17.3329 8.8244
rfemur 11.8972 1.87442 16.3866
rtibia 14.0743
rfoot -24.0538 -7.37837
rtoes -18.9813
lfemur -1.91688 2.45663 -10.3968
ltibia 37.7868
lfoot -28.131 3.17866
ltoes -56.7455
300
root 0.0449144 18.0099 6.83091 -5.65985 0.819243 -4.94406
lowerback 4.88131 -4.05796 10.2279
upperback -4.83469 -3.97904 8.12648
thorax -8.06641 -2.2418 3.46179
lowerneck -23.24 0.971091 6.45
upperneck 11.1248 1.26683 -11.7007
head 7.33076 -0.26276 -4.81344
rclavicle 3.61788e-014 -5.725e-014
rhumerus 26.1959 -61.2489 -46.2199
rradius 128.62
rwrist -19.2548
rhand -30.5944 -20.7276
rfingers 7.12502
rthumb -3.89151 -50.6719
lclavicle 3.61788e-014 -5.725e-014
lhumerus -40.806 -36.3774 78.2146
lradius 89.5991
lwrist 33.8165
lhand -7.58718 -20.2017
lfingers 7.12502
lthumb 18.306 8.95692
rfemur 12.2318 0.660628 16.8824
rtibia 13.5905
rfoot -24.0238 -7.6758
rtoes -18.8009
lfemur -2.66794 1.36967 -9.88952
ltibia 38.2615
lfoot -28.0142 2.82393
ltoes -56.7513
301
root 0.0185516 18.0132 6.80651 -5.61503 2.25004 -5.45448
lowerback 4.88068 -3.86783 9.92049
upperback -4.75932 -3.77612 7.84274
thorax -7.96902 -2.13212 3.28492
lowerneck -23.6019 0.4319 5.96433
upperneck 10.8965 0.520628 -10.8942
head 7.22988 -0.568095 -4.54961
rclavicle 5.48646e-014 -1.90833e-014
rhumerus 27.9474 -60.7718 -48.2634
rradius 128.965
rwrist -17.7351
rhand -28.8922 -21.0128
rfingers 7.12502
rthumb -2.24757 -50.9807
lclavicle 5.48646e-014 -1.90833e-014
lhumerus -39.2463 -36.9396 77.2896
lradius 90.9462
lwrist 34.1582
lhand -6.80338 -19.9419
lfingers 7.12502
lthumb 19.0599 9.14425
rfemur 12.5965 -0.477676 17.4194
rtibia 12.9393
rfoot -23.9745 -8.09641
rtoes -18.7666
lfemur -3.41895 0.278025 -9.36181
ltibia 38.6206
lfoot -27.8125 2.55219
ltoes -56.7634
302
root -0.0128247 18.0192 6.77735 -5.59282 3.67077 -5.95214
lowerback 5.0279 -3.63081 9.56766
upperback -4.67857 -3.49286 7.55032
thorax -7.94786 -1.98198 3.12681
lowerneck -24.0746 -0.190878 5.30723
upperneck 10.7953 -0.282571 -10.0071
head 7.19394 -0.903416 -4.24415
rclavicle 1.94809e-014 1.43125e-014
rhumerus 29.4273 -59.5922 -49.7447
rradius 129.132
rwrist -17.3653
rhand -29.7251 -20.8424
rfingers 7.12502
rthumb -3.05198 -50.8003
lclavicle 1.94809e-014 1.43125e-014
lhumerus -37.4329 -37.5634 76.3263
lradius 92.2193
lwrist 34.1657
lhand -6.43697 -19.7614
lfingers 7.12502
lthumb 19.4122 9.28962
rfemur 13.0406 -1.54098 17.9785
rtibia 12.082
rfoot -23.8958 -8.57226
rtoes -18.4047
lfemur -4.12779 -0.738346 -8.81682
ltibia 38.8354
lfoot -27.5447 2.40034
ltoes -56.967
303
root -0.0478881 18.0304 6.74626 -5.54481 5.0073 -6.36482
lowerback 5.2403 -3.31297 9.17709
upperback -4.58769 -3.10137 7.20925
thorax -7.95161 -1.77904 2.92767
lowerneck -24.4323 -0.939429 4.41138
upperneck 10.5278 -1.20215 -8.94992
head 7.09072 -1.28169 -3.85271
rclavicle 4.73108e-014 -2.8625e-014
rhumerus 31.1787 -58.2843 -51.1907
rradius 129.013
rwrist -17.0271
rhand -29.6506 -20.6173
rfingers 7.12502
rthumb -2.98005 -50.5762
lclavicle 4.73108e-014 -2.8625e-014
lhumerus -35.1676 -38.2955 75.1999
lradius 93.2905
lwrist 34.017
lhand -5.96721 -19.5053
lfingers 7.12502
lthumb 19.8639 9.49955
rfemur 13.4854 -2.54883 18.4512
rtibia 11.0784
rfoot -23.7509 -9.01314
rtoes -17.7645
lfemur -4.79124 -1.579 -8.32237
ltibia 38.8845
lfoot -27.2273 2.15476
ltoes -57.1231
304
root -0.0753116 18.0523 6.70753 -5.31898 6.09233 -6.68479
lowerback 5.41656 -2.87259 8.97012
upperback -4.48939 -2.54445 6.76716
thorax -7.93769 -1.50851 2.49584
lowerneck -24.78 -1.74197 3.51105
upperneck 10.1532 -2.18261 -7.89979
head 6.96529 -1.68703 -3.47122
rclavicle 2.54444e-014 4.77083e-015
rhumerus 33.0204 -56.624 -52.5222
rradius 128.614
rwrist -16.6436
rhand -29.9433 -20.4389
rfingers 7.12502
rthumb -3.26269 -50.3936
lclavicle 2.54444e-014 4.77083e-015
lhumerus -32.3075 -39.0185 73.8038
lradius 94.0623
lwrist 33.7456
lhand -5.0132 -19.2154
lfingers 7.12502
lthumb 20.7807 9.69188
rfemur 13.8318 -3.6928 18.7113
rtibia 9.69308
rfoot -23.1055 -9.22694
rtoes -16.9846
lfemur -5.49883 -2.15494 -7.92983
ltibia 38.6977
lfoot -26.8181 1.83097
ltoes -57.1435
305
root -0.0869124 18.0891 6.65391 -4.81233 6.8325 -6.79153
lowerback 5.59833 -2.36155 8.95053
upperback -4.52577 -1.87559 6.15159
thorax -8.07946 -1.20487 1.7705
lowerneck -24.8517 -2.49669 2.78339
upperneck 9.77659 -3.12762 -6.91541
head 6.81429 -2.06958 -3.13171
rclavicle 2.62396e-014 -7.95139e-015
rhumerus 34.1681 -54.2379 -53.2292
rradius 127.61
rwrist -16.0159
rhand -29.9598 -20.4515
rfingers 7.12502
rthumb -3.27867 -50.406
lclavicle 2.62396e-014 -7.95139e-015
lhumerus -29.2621 -39.5974 72.2331
lradius 94.568
lwrist 33.3358
lhand -3.88152 -19.0576
lfingers 7.12502
lthumb 21.8677 9.7267
rfemur 14.1147 -4.45651 18.7262
rtibia 7.56451
rfoot -22.0177 -9.78449
rtoes -16.2745
lfemur -6.33137 -2.56153 -7.84805
ltibia 38.2664
lfoot -26.3666 1.71368
ltoes -57.0813
306
root -0.123893 18.136 6.61511 -4.54103 7.80419 -6.63642
lowerback 5.8519 -1.94251 8.41813
upperback -4.56891 -1.37591 5.48376
thorax -8.24479 -0.959052 1.29399
lowerneck -24.434 -3.30821 1.99491
upperneck 9.25647 -4.12843 -5.89983
head 6.55784 -2.47321 -2.76488
rclavicle -1.09332e-014 2.70347e-014
rhumerus 33.9253 -51.5475 -52.5796
rradius 125.875
rwrist -16.0443
rhand -30.3338 -20.3648
rfingers 7.12502
rthumb -3.6398 -50.3134
lclavicle -1.09332e-014 2.70347e-014
lhumerus -26.2086 -40.2455 70.6785
lradius 94.8629
lwrist 32.9257
lhand -3.01315 -19.1632
lfingers 7.12502
lthumb 22.7013 9.52149
rfemur 15.7841 -5.44729 18.5525
rtibia 3.51095
rfoot -20.3464 -10.847
rtoes -15.2984
lfemur -6.70573 -3.05881 -7.92106
ltibia 37.5416
lfoot -25.8682 1.42192
ltoes -56.9955
307
root -0.15936 18.1933 6.57531 -4.24543 8.54597 -6.2859
lowerback 6.2049 -1.39737 7.94053
upperback -4.56214 -0.709207 4.70608
thorax -8.40575 -0.638258 0.646899
lowerneck -24.1451 -4.24048 1.04607
upperneck 8.70433 -5.24913 -4.79084
head 6.33323 -2.93615 -2.36023
rclavicle -1.19271e-014 5.725e-014
rhumerus 35.9124 -48.3232 -53.7159
rradius 123.506
rwrist -14.8256
rhand -30.8291 -19.1671
rfingers 7.12502
rthumb -4.11808 -49.1071
lclavicle -1.19271e-014 5.725e-014
lhumerus -22.5158 -41.0092 68.9156
lradius 94.8142
lwrist 32.7005
lhand -2.45322 -19.4254
lfingers 7.12502
lthumb 23.2386 9.19242
rfemur 17.1592 -6.18943 18.1809
rtibia 4.77083e-015
rfoot -18.9039 -11.7456
rtoes -14.3362
lfemur -6.88063 -3.40033 -8.20175
ltibia 36.5578
lfoot -25.261 1.29143
ltoes -56.9553
308
root -0.194618 18.2566 6.53274 -3.98251 8.97128 -5.76234
lowerback 6.67726 -0.778939 7.52896
upperback -4.45696 0.0496458 3.79382
thorax -8.51667 -0.279133 -0.197599
lowerneck -24.0305 -5.17949 0.00219025
upperneck 8.15437 -6.37852 -3.41342
head 6.17189 -3.38493 -1.86309
rclavicle -1.98785e-015 -7.95139e-016
rhumerus 36.6364 -45.2953 -53.4383
rradius 120.298
rwrist -14.6954
rhand -30.5903 -18.6305
rfingers 7.12502
rthumb -3.88755 -48.5748
lclavicle -1.98785e-015 -7.95139e-016
lhumerus -18.2054 -41.6928 66.8222
lradius 94.4454
lwrist 32.713
lhand -2.23052 -19.569
lfingers 7.12502
lthumb 23.4523 9.02175
rfemur 16.8143 -6.61073 17.6845
rtibia 9.54166e-015
rfoot -18.9324 -11.5794
rtoes -13.4203
lfemur -6.75813 -3.56795 -8.68007
ltibia 35.3091
lfoot -24.5252 1.32472
ltoes -56.97
309
root -0.234575 18.3204 6.48896 -3.76101 9.1088 -5.14121
lowerback 7.24621 -0.14084 7.08433
upperback -4.33644 0.828594 2.8363
thorax -8.65179 0.0891823 -1.08067
lowerneck -23.8091 -6.08634 -1.02232
upperneck 7.61784 -7.48583 -1.88763
head 6.03368 -3.8112 -1.3216
rclavicle -9.44227e-015 9.54166e-015
rhumerus 37.5975 -42.3008 -53.4837
rradius 116.125
rwrist -14.943
rhand -29.5491 -19.3384
rfingers 7.12502
rthumb -2.88202 -49.2986
lclavicle -9.44227e-015 9.54166e-015
lhumerus -13.8257 -42.266 64.5974
lradius 93.9291
lwrist 32.9412
lhand -2.29006 -19.57
lfingers 7.12502
lthumb 23.3952 9.02803
rfemur 16.5056 -6.74577 17.1326
rtibia -9.54166e-015
rfoot -19.0064 -11.421
rtoes -12.2428
lfemur -6.39439 -3.56655 -9.24729
ltibia 33.8997
lfoot -23.7413 1.47119
ltoes -57.0418
310
root -0.281042 18.3818 6.44845 -3.53844 9.0285 -4.47116
lowerback 7.52655 0.490544 6.38052
upperback -4.00083 1.53295 2.01616
thorax -8.38165 0.456688 -1.66671
lowerneck -23.7454 -6.93391 -1.90509
upperneck 6.99658 -8.5261 -0.497461
head 5.90988 -4.21561 -0.846512
rclavicle -1.67973e-014 1.82882e-014
rhumerus 39.621 -38.9472 -54.0679
rradius 110.768
rwrist -15.6276
rhand -28.1286 -21.3602
rfingers 7.12502
rthumb -1.51007 -51.3346
lclavicle -1.67973e-014 1.82882e-014
lhumerus -9.03813 -42.3568 62.2285
lradius 93.1496
lwrist 33.2789
lhand -2.40736 -19.5345
lfingers 7.12502
lthumb 23.2826 9.07773
rfemur 16.2079 -6.67308 16.5856
rtibia 2.38542e-014
rfoot -19.0832 -11.3019
rtoes -11.2732
lfemur -5.87895 -3.52516 -9.84624
ltibia 32.4011
lfoot -23.0251 1.76374
ltoes -57.0935
